<svg width="927.36" height="121.074" viewBox="0 0 927.36 121.074" xmlns="http://www.w3.org/2000/svg">
	<g id="svgGroup" stroke-linecap="round" fill-rule="evenodd" font-size="9pt" stroke="#000" stroke-width="0.25mm" fill="none" style="stroke:#000;stroke-width:0.25mm;fill:none">
		<path d="M 15.295 119.14 L 0 119.14 L 0 6.762 Q 6.601 5.957 14.571 5.555 A 323.298 323.298 0 0 1 28.949 5.158 A 357.334 357.334 0 0 1 31.073 5.152 Q 45.08 5.152 54.901 9.579 Q 64.722 14.007 69.874 21.735 A 30.826 30.826 0 0 1 74.993 37.861 A 37.669 37.669 0 0 1 75.026 39.445 A 40.666 40.666 0 0 1 73.886 49.302 A 31.021 31.021 0 0 1 69.069 59.892 A 35.923 35.923 0 0 1 56.911 70.566 A 45.185 45.185 0 0 1 52.486 72.691 A 55.987 55.987 0 0 1 39.462 76.272 A 75.982 75.982 0 0 1 27.853 77.119 Q 21.091 77.119 15.295 76.636 L 15.295 119.14 Z M 15.295 18.676 L 15.295 63.595 A 77.229 77.229 0 0 0 17.385 63.825 Q 19.26 64.008 21.574 64.159 Q 25.277 64.4 29.785 64.4 A 51.248 51.248 0 0 0 38.447 63.715 Q 43.082 62.919 46.792 61.197 A 24.506 24.506 0 0 0 52.003 57.96 A 20.763 20.763 0 0 0 59.82 42.758 A 27.885 27.885 0 0 0 59.892 40.733 A 23.267 23.267 0 0 0 58.667 33.016 A 19.538 19.538 0 0 0 52.325 24.15 A 24.894 24.894 0 0 0 44.145 19.862 Q 38.411 18.032 30.751 18.032 A 211.111 211.111 0 0 0 25.506 18.095 A 177.002 177.002 0 0 0 22.54 18.193 Q 18.676 18.354 15.295 18.676 Z" id="0" vector-effect="non-scaling-stroke"/>
		<path d="M 106.421 119.14 L 91.931 119.14 L 91.931 35.42 L 105.938 35.42 L 105.938 53.613 Q 108.031 48.3 111.573 43.712 Q 115.115 39.123 120.428 36.305 A 23.855 23.855 0 0 1 127.962 33.852 A 31.329 31.329 0 0 1 132.825 33.488 Q 135.24 33.488 137.655 33.73 A 30.545 30.545 0 0 1 139.353 33.945 Q 140.158 34.071 140.846 34.233 A 14.195 14.195 0 0 1 141.68 34.454 L 137.333 49.427 Q 134.413 48.197 130.466 48.142 A 26.715 26.715 0 0 0 130.088 48.139 A 20.862 20.862 0 0 0 119.414 51.111 A 25.13 25.13 0 0 0 118.737 51.52 Q 113.38 54.879 109.928 61.892 A 36.871 36.871 0 0 0 109.883 61.985 A 31.106 31.106 0 0 0 107.516 68.923 Q 106.421 73.859 106.421 80.017 L 106.421 119.14 Z" id="1" vector-effect="non-scaling-stroke"/>
		<path d="M 208.656 42.182 L 208.656 35.42 L 221.858 35.42 L 221.858 98.854 A 19.561 19.561 0 0 0 222.022 101.487 Q 222.435 104.517 223.891 106.051 A 4.774 4.774 0 0 0 224.836 106.824 Q 227.815 108.675 231.357 108.675 L 228.298 119.945 A 28.533 28.533 0 0 1 221.432 119.184 Q 212.357 116.931 209.788 107.999 A 21.88 21.88 0 0 1 209.622 107.387 Q 205.919 112.539 199.56 116.806 Q 193.584 120.815 184.551 121.056 A 43.799 43.799 0 0 1 183.379 121.072 Q 172.914 121.072 164.381 115.759 A 36.945 36.945 0 0 1 152.446 103.641 A 44.955 44.955 0 0 1 150.777 100.706 A 43.836 43.836 0 0 1 146.542 87.918 A 58.997 58.997 0 0 1 145.705 77.763 A 53.359 53.359 0 0 1 147.31 64.45 A 45.028 45.028 0 0 1 150.776 55.223 Q 155.848 45.241 164.784 39.364 A 35.899 35.899 0 0 1 182.807 33.558 A 44.094 44.094 0 0 1 185.311 33.488 A 36.361 36.361 0 0 1 193.029 34.278 A 30.112 30.112 0 0 1 198.432 35.983 A 41.863 41.863 0 0 1 205.334 39.676 A 35.586 35.586 0 0 1 208.656 42.182 Z M 207.368 97.727 L 207.368 52.808 Q 203.021 49.749 197.789 47.897 Q 192.556 46.046 186.76 46.046 A 25.638 25.638 0 0 0 178.756 47.26 A 22.578 22.578 0 0 0 173.155 49.99 Q 167.279 53.935 163.898 60.939 A 33.267 33.267 0 0 0 161.075 70.078 A 44.562 44.562 0 0 0 160.517 77.28 Q 160.517 86.296 163.898 93.3 A 28.339 28.339 0 0 0 168.898 100.619 A 25.271 25.271 0 0 0 173.236 104.248 Q 179.193 108.192 186.599 108.192 Q 192.717 108.192 198.191 105.214 Q 203.665 102.235 207.368 97.727 Z" id="2" vector-effect="non-scaling-stroke"/>
		<path d="M 265.167 119.14 L 250.677 119.14 L 250.677 35.42 L 264.684 35.42 L 264.684 49.427 Q 269.192 42.665 276.196 38.076 A 27.879 27.879 0 0 1 287.635 33.851 A 36.433 36.433 0 0 1 292.859 33.488 Q 303.679 33.488 310.32 38.464 A 21.349 21.349 0 0 1 314.03 42.021 Q 320.672 50.112 321.015 63.126 A 54.36 54.36 0 0 1 321.034 64.561 L 321.034 119.14 L 306.544 119.14 L 306.544 66.171 A 31.016 31.016 0 0 0 305.993 60.148 Q 305.011 55.188 302.278 51.681 A 13.813 13.813 0 0 0 292.172 46.282 A 19.419 19.419 0 0 0 290.444 46.207 A 21.126 21.126 0 0 0 279.416 49.369 A 27.939 27.939 0 0 0 276.437 51.439 Q 269.836 56.672 265.167 63.756 L 265.167 119.14 Z" id="3" vector-effect="non-scaling-stroke"/>
		<path d="M 349.209 90.321 L 349.209 51.037 L 334.719 51.037 L 334.719 38.479 L 349.531 38.479 L 352.59 12.075 L 363.699 12.075 L 363.699 38.479 L 386.883 38.479 L 386.883 51.037 L 363.699 51.037 L 363.699 91.448 A 34.709 34.709 0 0 0 363.969 95.95 Q 364.731 101.755 367.644 104.489 Q 371.588 108.192 377.062 108.192 Q 381.087 108.192 384.71 106.904 A 41.429 41.429 0 0 0 389.826 104.7 A 36.656 36.656 0 0 0 391.391 103.845 L 395.416 115.437 Q 393.227 116.75 389.998 118.026 A 69.818 69.818 0 0 1 386.722 119.22 Q 381.248 121.072 375.291 121.072 Q 363.216 121.072 356.213 113.103 Q 349.209 105.133 349.209 90.321 Z" id="4" vector-effect="non-scaling-stroke"/>
		<path d="M 464.002 42.182 L 464.002 35.42 L 477.204 35.42 L 477.204 98.854 A 19.561 19.561 0 0 0 477.368 101.487 Q 477.781 104.517 479.237 106.051 A 4.774 4.774 0 0 0 480.182 106.824 Q 483.161 108.675 486.703 108.675 L 483.644 119.945 A 28.533 28.533 0 0 1 476.778 119.184 Q 467.703 116.931 465.134 107.999 A 21.88 21.88 0 0 1 464.968 107.387 Q 461.265 112.539 454.906 116.806 Q 448.93 120.815 439.897 121.056 A 43.799 43.799 0 0 1 438.725 121.072 Q 428.26 121.072 419.727 115.759 A 36.945 36.945 0 0 1 407.792 103.641 A 44.955 44.955 0 0 1 406.123 100.706 A 43.836 43.836 0 0 1 401.888 87.918 A 58.997 58.997 0 0 1 401.051 77.763 A 53.359 53.359 0 0 1 402.656 64.45 A 45.028 45.028 0 0 1 406.122 55.223 Q 411.194 45.241 420.13 39.364 A 35.899 35.899 0 0 1 438.153 33.558 A 44.094 44.094 0 0 1 440.657 33.488 A 36.361 36.361 0 0 1 448.375 34.278 A 30.112 30.112 0 0 1 453.778 35.983 A 41.863 41.863 0 0 1 460.68 39.676 A 35.586 35.586 0 0 1 464.002 42.182 Z M 462.714 97.727 L 462.714 52.808 Q 458.367 49.749 453.135 47.897 Q 447.902 46.046 442.106 46.046 A 25.638 25.638 0 0 0 434.102 47.26 A 22.578 22.578 0 0 0 428.501 49.99 Q 422.625 53.935 419.244 60.939 A 33.267 33.267 0 0 0 416.421 70.078 A 44.562 44.562 0 0 0 415.863 77.28 Q 415.863 86.296 419.244 93.3 A 28.339 28.339 0 0 0 424.244 100.619 A 25.271 25.271 0 0 0 428.582 104.248 Q 434.539 108.192 441.945 108.192 Q 448.063 108.192 453.537 105.214 Q 459.011 102.235 462.714 97.727 Z" id="5" vector-effect="non-scaling-stroke"/>
		<path d="M 555.933 118.818 L 555.933 6.762 Q 563.5 5.957 570.745 5.555 A 243.609 243.609 0 0 1 577.485 5.279 Q 580.928 5.184 584.743 5.16 A 413.099 413.099 0 0 1 587.328 5.152 Q 601.818 5.152 612.364 9.66 A 49.875 49.875 0 0 1 624.099 16.616 A 43.829 43.829 0 0 1 629.751 22.057 Q 636.594 29.946 639.895 40.331 A 71.252 71.252 0 0 1 643.069 58.033 A 82.925 82.925 0 0 1 643.195 62.629 A 72.947 72.947 0 0 1 640.81 81.462 A 67.301 67.301 0 0 1 639.814 84.847 Q 636.433 95.312 629.43 103.282 A 46.639 46.639 0 0 1 616.138 113.665 A 56.763 56.763 0 0 1 611.559 115.84 Q 600.691 120.428 585.557 120.428 A 301.037 301.037 0 0 1 579.003 120.36 Q 575.76 120.289 572.873 120.145 A 163.416 163.416 0 0 1 569.537 119.945 Q 562.695 119.462 555.933 118.818 Z M 571.228 19.159 L 571.228 106.26 Q 574.609 106.743 578.312 106.904 A 172.696 172.696 0 0 0 584.048 107.055 A 195.278 195.278 0 0 0 586.04 107.065 Q 597.593 107.065 605.768 103.483 A 32.247 32.247 0 0 0 609.707 101.43 Q 618.884 95.795 623.231 85.733 Q 627.578 75.67 627.578 62.629 Q 627.578 51.037 623.231 40.894 Q 618.884 30.751 609.868 24.552 A 33.641 33.641 0 0 0 598.514 19.627 Q 593.94 18.533 588.61 18.379 A 61.193 61.193 0 0 0 586.845 18.354 Q 582.176 18.354 578.312 18.596 Q 574.448 18.837 571.228 19.159 Z" id="7" vector-effect="non-scaling-stroke"/>
		<path d="M 731.906 83.237 L 673.302 83.237 A 38.782 38.782 0 0 0 675.136 91.327 Q 677.051 96.794 680.613 100.664 A 24.118 24.118 0 0 0 681.513 101.591 A 22.772 22.772 0 0 0 693.789 107.726 A 32.234 32.234 0 0 0 699.384 108.192 Q 706.629 108.192 712.425 106.663 Q 718.221 105.133 723.534 102.718 L 726.915 115.115 Q 721.119 117.691 713.874 119.382 A 62.652 62.652 0 0 1 705.676 120.701 A 83.761 83.761 0 0 1 697.613 121.072 A 45.591 45.591 0 0 1 685.142 119.453 A 33.984 33.984 0 0 1 669.036 109.56 A 37.869 37.869 0 0 1 660.655 94.201 Q 658.49 86.691 658.49 77.28 A 56.927 56.927 0 0 1 659.83 64.687 A 46.433 46.433 0 0 1 663.239 54.82 A 39.673 39.673 0 0 1 671.315 43.419 A 36.848 36.848 0 0 1 676.522 39.204 A 33.888 33.888 0 0 1 693.04 33.614 A 42.191 42.191 0 0 1 696.325 33.488 A 45.971 45.971 0 0 1 705.132 34.286 Q 710.516 35.337 714.815 37.772 A 27.713 27.713 0 0 1 716.369 38.721 Q 724.339 43.953 728.364 52.808 Q 732.389 61.663 732.389 72.289 Q 732.389 77.924 731.906 83.237 Z M 673.141 71.484 L 719.026 71.484 A 39.212 39.212 0 0 0 718.375 64.101 Q 717.03 57.095 712.908 52.647 A 20.106 20.106 0 0 0 701.701 46.568 A 29.616 29.616 0 0 0 696.003 46.046 A 21.864 21.864 0 0 0 687.773 47.551 A 20.164 20.164 0 0 0 680.547 52.566 A 24.416 24.416 0 0 0 675.813 60.116 Q 674.455 63.432 673.709 67.492 A 51.554 51.554 0 0 0 673.141 71.484 Z" id="8" vector-effect="non-scaling-stroke"/>
		<path d="M 765.233 112.217 L 765.233 119.14 L 751.709 119.14 L 751.709 0 L 766.199 0 L 766.199 44.114 Q 769.419 40.411 775.618 36.95 Q 781.816 33.488 790.349 33.488 Q 800.009 33.488 808.462 38.56 A 35.95 35.95 0 0 1 820.018 49.777 A 44.218 44.218 0 0 1 822.066 53.21 A 41.352 41.352 0 0 1 826.086 64.547 Q 827.112 69.543 827.208 75.28 A 71.28 71.28 0 0 1 827.218 76.475 A 53.637 53.637 0 0 1 826.113 87.565 A 44.677 44.677 0 0 1 823.998 94.668 Q 820.778 102.879 815.385 108.756 A 40.079 40.079 0 0 1 805.513 116.667 A 37.517 37.517 0 0 1 803.229 117.852 A 32.209 32.209 0 0 1 791.369 121.008 A 30.927 30.927 0 0 1 789.383 121.072 Q 782.138 121.072 775.779 118.416 A 48.742 48.742 0 0 1 770.461 115.826 Q 767.522 114.154 765.233 112.217 Z M 766.199 56.994 L 766.199 101.752 A 28.964 28.964 0 0 0 772.043 105.27 A 35.101 35.101 0 0 0 774.893 106.421 A 31.333 31.333 0 0 0 784.817 108.185 A 35.482 35.482 0 0 0 785.519 108.192 A 27.354 27.354 0 0 0 793.594 107.036 A 23.742 23.742 0 0 0 799.446 104.328 Q 805.483 100.464 808.945 93.38 Q 812.406 86.296 812.406 76.958 Q 812.406 67.642 809.187 60.872 A 27.913 27.913 0 0 0 808.945 60.375 Q 805.483 53.452 799.768 49.749 Q 794.052 46.046 787.129 46.046 A 23.733 23.733 0 0 0 778.07 47.757 A 22.627 22.627 0 0 0 774.652 49.508 A 37.922 37.922 0 0 0 770.577 52.413 Q 768.584 54.056 767.118 55.811 A 20.833 20.833 0 0 0 766.199 56.994 Z" id="9" vector-effect="non-scaling-stroke"/>
		<path d="M 904.659 42.182 L 904.659 35.42 L 917.861 35.42 L 917.861 98.854 A 19.561 19.561 0 0 0 918.025 101.487 Q 918.438 104.517 919.894 106.051 A 4.774 4.774 0 0 0 920.839 106.824 Q 923.818 108.675 927.36 108.675 L 924.301 119.945 A 28.533 28.533 0 0 1 917.435 119.184 Q 908.36 116.931 905.791 107.999 A 21.88 21.88 0 0 1 905.625 107.387 Q 901.922 112.539 895.563 116.806 Q 889.587 120.815 880.554 121.056 A 43.799 43.799 0 0 1 879.382 121.072 Q 868.917 121.072 860.384 115.759 A 36.945 36.945 0 0 1 848.449 103.641 A 44.955 44.955 0 0 1 846.78 100.706 A 43.836 43.836 0 0 1 842.545 87.918 A 58.997 58.997 0 0 1 841.708 77.763 A 53.359 53.359 0 0 1 843.313 64.45 A 45.028 45.028 0 0 1 846.779 55.223 Q 851.851 45.241 860.787 39.364 A 35.899 35.899 0 0 1 878.81 33.558 A 44.094 44.094 0 0 1 881.314 33.488 A 36.361 36.361 0 0 1 889.032 34.278 A 30.112 30.112 0 0 1 894.435 35.983 A 41.863 41.863 0 0 1 901.337 39.676 A 35.586 35.586 0 0 1 904.659 42.182 Z M 903.371 97.727 L 903.371 52.808 Q 899.024 49.749 893.792 47.897 Q 888.559 46.046 882.763 46.046 A 25.638 25.638 0 0 0 874.759 47.26 A 22.578 22.578 0 0 0 869.158 49.99 Q 863.282 53.935 859.901 60.939 A 33.267 33.267 0 0 0 857.078 70.078 A 44.562 44.562 0 0 0 856.52 77.28 Q 856.52 86.296 859.901 93.3 A 28.339 28.339 0 0 0 864.901 100.619 A 25.271 25.271 0 0 0 869.239 104.248 Q 875.196 108.192 882.602 108.192 Q 888.72 108.192 894.194 105.214 Q 899.668 102.235 903.371 97.727 Z" id="10" vector-effect="non-scaling-stroke"/>
	</g>
</svg>